<mxfile host="app.diagrams.net" agent="Mozilla/5.0 (Windows NT 10.0; Win64; x64) AppleWebKit/537.36 (KHTML, like Gecko) Chrome/131.0.0.0 Safari/537.36" version="25.0.3">
  <diagram name="Page-1" id="TkTFDNkGsLzdSLR9CDRC">
    <mxGraphModel dx="1434" dy="772" grid="1" gridSize="10" guides="1" tooltips="1" connect="1" arrows="1" fold="1" page="1" pageScale="1" pageWidth="850" pageHeight="1100" math="0" shadow="0">
      <root>
        <mxCell id="0" />
        <mxCell id="1" parent="0" />
        <mxCell id="3v5hrgZBLvrhwZDDacv0-16" style="edgeStyle=orthogonalEdgeStyle;rounded=0;orthogonalLoop=1;jettySize=auto;html=1;exitX=0.5;exitY=1;exitDx=0;exitDy=0;entryX=0.5;entryY=0;entryDx=0;entryDy=0;" edge="1" parent="1" source="3v5hrgZBLvrhwZDDacv0-2" target="3v5hrgZBLvrhwZDDacv0-4">
          <mxGeometry relative="1" as="geometry" />
        </mxCell>
        <mxCell id="3v5hrgZBLvrhwZDDacv0-2" value="start" style="ellipse;whiteSpace=wrap;html=1;" vertex="1" parent="1">
          <mxGeometry x="340" y="80" width="120" height="90" as="geometry" />
        </mxCell>
        <mxCell id="3v5hrgZBLvrhwZDDacv0-17" style="edgeStyle=orthogonalEdgeStyle;rounded=0;orthogonalLoop=1;jettySize=auto;html=1;exitX=0.5;exitY=1;exitDx=0;exitDy=0;entryX=0.5;entryY=0;entryDx=0;entryDy=0;" edge="1" parent="1" source="3v5hrgZBLvrhwZDDacv0-4" target="3v5hrgZBLvrhwZDDacv0-10">
          <mxGeometry relative="1" as="geometry" />
        </mxCell>
        <mxCell id="3v5hrgZBLvrhwZDDacv0-4" value="input a,b" style="shape=parallelogram;perimeter=parallelogramPerimeter;whiteSpace=wrap;html=1;fixedSize=1;" vertex="1" parent="1">
          <mxGeometry x="340" y="230" width="120" height="60" as="geometry" />
        </mxCell>
        <mxCell id="3v5hrgZBLvrhwZDDacv0-6" style="edgeStyle=orthogonalEdgeStyle;rounded=0;orthogonalLoop=1;jettySize=auto;html=1;exitX=1;exitY=0.5;exitDx=0;exitDy=0;" edge="1" parent="1" source="3v5hrgZBLvrhwZDDacv0-5">
          <mxGeometry relative="1" as="geometry">
            <mxPoint x="610" y="480" as="targetPoint" />
            <Array as="points">
              <mxPoint x="525" y="478" />
              <mxPoint x="525" y="481" />
            </Array>
          </mxGeometry>
        </mxCell>
        <mxCell id="3v5hrgZBLvrhwZDDacv0-5" value="c &amp;gt; 0" style="rhombus;whiteSpace=wrap;html=1;" vertex="1" parent="1">
          <mxGeometry x="360" y="438" width="80" height="80" as="geometry" />
        </mxCell>
        <mxCell id="3v5hrgZBLvrhwZDDacv0-7" style="edgeStyle=orthogonalEdgeStyle;rounded=0;orthogonalLoop=1;jettySize=auto;html=1;exitX=0.5;exitY=1;exitDx=0;exitDy=0;entryX=0.5;entryY=1;entryDx=0;entryDy=0;" edge="1" parent="1" source="3v5hrgZBLvrhwZDDacv0-5" target="3v5hrgZBLvrhwZDDacv0-5">
          <mxGeometry relative="1" as="geometry">
            <mxPoint x="390.03999999999996" y="584" as="targetPoint" />
          </mxGeometry>
        </mxCell>
        <mxCell id="3v5hrgZBLvrhwZDDacv0-8" value="true" style="text;html=1;align=center;verticalAlign=middle;resizable=0;points=[];autosize=1;strokeColor=none;fillColor=none;" vertex="1" parent="1">
          <mxGeometry x="440" y="448" width="40" height="30" as="geometry" />
        </mxCell>
        <mxCell id="3v5hrgZBLvrhwZDDacv0-18" style="edgeStyle=orthogonalEdgeStyle;rounded=0;orthogonalLoop=1;jettySize=auto;html=1;exitX=0.5;exitY=1;exitDx=0;exitDy=0;" edge="1" parent="1" source="3v5hrgZBLvrhwZDDacv0-10" target="3v5hrgZBLvrhwZDDacv0-5">
          <mxGeometry relative="1" as="geometry" />
        </mxCell>
        <mxCell id="3v5hrgZBLvrhwZDDacv0-10" value="a - b = c" style="rounded=0;whiteSpace=wrap;html=1;" vertex="1" parent="1">
          <mxGeometry x="340" y="330" width="120" height="60" as="geometry" />
        </mxCell>
        <mxCell id="3v5hrgZBLvrhwZDDacv0-11" value="&amp;nbsp;b nhỏ hơn" style="strokeWidth=2;html=1;shape=mxgraph.flowchart.display;whiteSpace=wrap;" vertex="1" parent="1">
          <mxGeometry x="610" y="448" width="100" height="60" as="geometry" />
        </mxCell>
        <mxCell id="3v5hrgZBLvrhwZDDacv0-12" value="a nhỏ hơn" style="strokeWidth=2;html=1;shape=mxgraph.flowchart.display;whiteSpace=wrap;" vertex="1" parent="1">
          <mxGeometry x="100" y="448" width="100" height="60" as="geometry" />
        </mxCell>
        <mxCell id="3v5hrgZBLvrhwZDDacv0-13" style="edgeStyle=orthogonalEdgeStyle;rounded=0;orthogonalLoop=1;jettySize=auto;html=1;exitX=0;exitY=0.5;exitDx=0;exitDy=0;entryX=1;entryY=0.5;entryDx=0;entryDy=0;entryPerimeter=0;" edge="1" parent="1" source="3v5hrgZBLvrhwZDDacv0-5" target="3v5hrgZBLvrhwZDDacv0-12">
          <mxGeometry relative="1" as="geometry" />
        </mxCell>
        <mxCell id="3v5hrgZBLvrhwZDDacv0-14" value="false" style="text;html=1;align=center;verticalAlign=middle;resizable=0;points=[];autosize=1;strokeColor=none;fillColor=none;" vertex="1" parent="1">
          <mxGeometry x="300" y="438" width="50" height="30" as="geometry" />
        </mxCell>
      </root>
    </mxGraphModel>
  </diagram>
</mxfile>
